# Blender v2.77 (sub 0) OBJ File: ''
# www.blender.org
o Cube
v -3.279210 -1.000000 -1.000000
v -3.279210 -1.000000 1.000000
v -5.279210 -1.000000 1.000000
v -5.279209 -1.000000 -1.000000
v -3.279209 1.000000 -0.999999
v -3.279210 1.000000 1.000001
v -5.279210 1.000000 1.000000
v -5.279210 1.000000 -1.000000
v 5.670442 -1.000000 -1.000000
v 5.670442 -1.000000 1.000000
v 3.670442 -1.000000 1.000000
v 3.670443 -1.000000 -1.000000
v 5.670443 1.000000 -0.999999
v 5.670442 1.000000 1.000001
v 3.670442 1.000000 1.000000
v 3.670442 1.000000 -1.000000
v 0.770755 -1.000000 -5.421871
v 0.770755 -1.000000 -3.421871
v -1.229245 -1.000000 -3.421871
v -1.229245 -1.000000 -5.421871
v 0.770755 1.000000 -5.421870
v 0.770754 1.000000 -3.421870
v -1.229246 1.000000 -3.421871
v -1.229245 1.000000 -5.421871
v 0.770755 -1.000000 2.552494
v 0.770755 -1.000000 4.552494
v -1.229245 -1.000000 4.552493
v -1.229245 -1.000000 2.552493
v 0.770755 1.000000 2.552494
v 0.770754 1.000000 4.552494
v -1.229246 1.000000 4.552493
v -1.229245 1.000000 2.552494
v 0.770755 -4.942963 -1.327778
v 0.770755 -4.942963 0.672222
v -1.229245 -4.942963 0.672222
v -1.229245 -4.942963 -1.327778
v 0.770755 -2.942963 -1.327777
v 0.770754 -2.942963 0.672223
v -1.229246 -2.942963 0.672222
v -1.229245 -2.942963 -1.327778
v 0.770755 2.977067 -1.327778
v 0.770755 2.977067 0.672222
v -1.229245 2.977067 0.672222
v -1.229245 2.977067 -1.327778
v 0.770755 4.977067 -1.327777
v 0.770754 4.977067 0.672223
v -1.229246 4.977067 0.672222
v -1.229245 4.977067 -1.327778
vn 0.0000 -1.0000 0.0000
vn 0.0000 1.0000 0.0000
vn 1.0000 -0.0000 0.0000
vn 0.0000 -0.0000 1.0000
vn -1.0000 -0.0000 -0.0000
vn 0.0000 0.0000 -1.0000
s off
f 2//1 4//1 1//1
f 8//2 6//2 5//2
f 5//3 2//3 1//3
f 6//4 3//4 2//4
f 7//5 4//5 3//5
f 1//6 8//6 5//6
f 10//1 12//1 9//1
f 16//2 14//2 13//2
f 13//3 10//3 9//3
f 14//4 11//4 10//4
f 11//5 16//5 12//5
f 9//6 16//6 13//6
f 17//1 19//1 20//1
f 24//2 22//2 21//2
f 21//3 18//3 17//3
f 22//4 19//4 18//4
f 23//5 20//5 19//5
f 17//6 24//6 21//6
f 25//1 27//1 28//1
f 32//2 30//2 29//2
f 29//3 26//3 25//3
f 30//4 27//4 26//4
f 27//5 32//5 28//5
f 25//6 32//6 29//6
f 33//1 35//1 36//1
f 40//2 38//2 37//2
f 37//3 34//3 33//3
f 38//4 35//4 34//4
f 35//5 40//5 36//5
f 33//6 40//6 37//6
f 41//1 43//1 44//1
f 48//2 46//2 45//2
f 45//3 42//3 41//3
f 46//4 43//4 42//4
f 43//5 48//5 44//5
f 41//6 48//6 45//6
f 2//1 3//1 4//1
f 8//2 7//2 6//2
f 5//3 6//3 2//3
f 6//4 7//4 3//4
f 7//5 8//5 4//5
f 1//6 4//6 8//6
f 10//1 11//1 12//1
f 16//2 15//2 14//2
f 13//3 14//3 10//3
f 14//4 15//4 11//4
f 11//5 15//5 16//5
f 9//6 12//6 16//6
f 17//1 18//1 19//1
f 24//2 23//2 22//2
f 21//3 22//3 18//3
f 22//4 23//4 19//4
f 23//5 24//5 20//5
f 17//6 20//6 24//6
f 25//1 26//1 27//1
f 32//2 31//2 30//2
f 29//3 30//3 26//3
f 30//4 31//4 27//4
f 27//5 31//5 32//5
f 25//6 28//6 32//6
f 33//1 34//1 35//1
f 40//2 39//2 38//2
f 37//3 38//3 34//3
f 38//4 39//4 35//4
f 35//5 39//5 40//5
f 33//6 36//6 40//6
f 41//1 42//1 43//1
f 48//2 47//2 46//2
f 45//3 46//3 42//3
f 46//4 47//4 43//4
f 43//5 47//5 48//5
f 41//6 44//6 48//6
